<svg xmlns="http://www.w3.org/2000/svg" viewBox="0 0 134 30">
  <g fill="none" fill-rule="evenodd">
    <path fill="#1A1919" d="M0 27.2432432L.411885246 22.8243243C3.04795082 24.6486486 6.46632377 25.5813514 9.92588525 25.5813514 13.5916639 25.5813514 15.2392049 24.1624324 15.2392049 21.6894595 15.2392049 19.257027 13.3445328 18.4059459 9.71994262 17.2708108L7.24890574 16.5408108C3.21270492 15.3248649.205942623 13.0143243.205942623 8.27108108.205942623 3.52810811 3.58312705.163243243 10.6675533.163243243 14.1271148.163243243 17.0926885.892972973 19.6049139 2.23081081L19.1518402 6.60891892C16.5984262 5.23081081 13.674041 4.58189189 10.6263648 4.58189189 7.04296311 4.58189189 5.64255328 5.96027027 5.64255328 8.06837838 5.64255328 9.93324324 6.75464344 11.3116216 10.1318279 12.2437838L12.4795738 12.8924324C18.3283443 14.5140541 20.6758156 17.23 20.6758156 21.5272973 20.6758156 26.2297297 17.3395451 30 9.59665164 30 5.97206148 30 2.55368852 29.0675676 0 27.2432432M31.7846352 25.702973C33.2262336 25.702973 34.4618893 25.4189189 35.615168 24.8921622L35.2444713 28.9864865C33.88525 29.5540541 32.3612746 29.8378378 30.9608648 29.8378378 26.3480246 29.8378378 23.4651025 27.5675676 23.4651025 22.9462162L23.4651025 3.77108108 28.6133934 3.08216216 28.6133934 8.59540541 35.6563566 8.59540541 35.2853852 12.3654054 28.6133934 12.3654054 28.6133934 22.3381081C28.6133934 24.8921622 30.0961803 25.702973 31.7846352 25.702973M50.6607869 23.7162162L50.6607869 18.8924324C50.0017705 19.2167568 49.260377 19.4597297 48.3542295 19.7032432L46.3362664 20.1894595C43.5766352 20.8786486 42.2586025 21.6086486 42.2586025 23.5135135 42.2586025 25.2975676 43.7002008 26.0675676 45.5124959 26.0675676 47.7364016 26.0675676 49.5898852 25.2162162 50.6607869 23.7162162zM51.1547746 29.3513514L50.7843525 26.9189189C49.3015656 28.8243243 47.1185738 29.9189189 44.3177541 29.9189189 40.2815533 29.9189189 37.3986311 27.527027 37.3986311 24.0405405 37.3986311 20.5543243 39.1694631 18.5678378 44.5648852 17.2708108L47.8599672 16.5005405C49.7958279 16.0140541 50.4136557 15.5275676 50.4136557 14.2708108 50.4136557 12.8924324 49.6310738 12.1224324 46.6243115 12.1224324 43.9058689 12.1224324 41.2700779 12.6897297 38.5928238 14.1086486L39.004709 9.85189189C41.3936434 8.59540541 44.1532746 8.02783784 46.9538197 8.02783784 53.0906352 8.02783784 55.6443238 10.2981081 55.6443238 14.7978378L55.6443238 23.7975676C55.6443238 25.7840541 55.8914549 27.6081081 56.1385861 29.3513514L51.1547746 29.3513514zM74.1382459 23.9189189L74.1382459 14.0278378C72.9025902 12.7305405 71.2962377 12.1224324 69.3191885 12.1224324 65.5298443 12.1224324 63.5942582 14.9194595 63.5942582 18.9732432 63.5942582 23.0678378 65.5298443 25.8243243 69.2368115 25.8243243 71.2550492 25.8243243 72.861127 25.2162162 74.1382459 23.9189189zM79.2450738.811891892L79.2450738 29.3513514 74.6322336 29.3513514 74.3851025 27.1216216C72.9025902 28.9459459 70.6784098 29.9189189 68.0011557 29.9189189 62.399791 29.9189189 58.4871557 25.6621622 58.4871557 18.9732432 58.4871557 12.2843243 62.4409795 8.02783784 68.4542295 8.02783784 70.8843525 8.02783784 72.7378361 8.83864865 74.1382459 10.3386486L74.1382459.811891892 79.2450738.811891892z"></path>
    <polyline fill="#1A1919" points="83.208 9.127 88.233 8.606 88.233 29.351 83.208 29.351 83.208 9.127"></polyline>
    <path fill="#1A1919" d="M107.178582 18.9732432C107.178582 14.5140541 105.489852 12.0410811 101.782885 12.0410811 98.1173811 12.0410811 96.3465492 14.5140541 96.3465492 18.9732432 96.3465492 23.4324324 98.1173811 25.8648649 101.782885 25.8648649 105.407475 25.8648649 107.178582 23.4324324 107.178582 18.9732432zM91.2391721 18.9732432C91.2391721 12.487027 95.0285164 8.02783784 101.782885 8.02783784 108.496615 8.02783784 112.326873 12.487027 112.326873 18.9732432 112.326873 25.5813514 108.496615 29.9189189 101.782885 29.9189189 95.0285164 29.9189189 91.2391721 25.4594595 91.2391721 18.9732432zM133.918172 15.487027L133.918172 29.3513514 128.851984 29.3513514 128.851984 16.2572973C128.851984 13.7437838 127.657791 12.2437838 124.89816 12.2437838 123.085865 12.2437838 121.644266 13.0545946 120.532451 14.5545946L120.532451 29.3513514 115.38416 29.3513514 115.38416 8.59540541 119.914623 8.59540541 120.285045 11.2708108C121.562164 9.24405405 123.744881 8.02783784 126.586615 8.02783784 131.117078 8.02783784 133.918172 10.7035135 133.918172 15.487027"></path>
    <polyline fill="#EB8C2F" points="84.133 6.348 82.332 3.909 83.578 1.153 86.626 .838 88.427 3.278 87.18 6.033 84.133 6.348"></polyline>
  </g>
</svg>