<svg xmlns="http://www.w3.org/2000/svg" xmlns:xlink="http://www.w3.org/1999/xlink" version="1.1" id="Colour_logo_1" x="0px" y="0px" viewBox="0 0 368.908 81.873" enable-background="new 0 0 368.908 81.873" xml:space="preserve" class="style-svg replaced-svg svg-replaced-0">
  <g class="logo-icon">
    <g class="logo-icon-1">
      <path fill="#3BB774" d="M3.8,67.304c-2.099,0-3.8-1.699-3.8-3.801V43.964c0-2.098,1.701-3.799,3.8-3.799    c2.098,0,3.799,1.701,3.799,3.799v19.539C7.599,65.604,5.898,67.304,3.8,67.304z"></path>
    </g>

    <g class="logo-icon-2">
      <path fill="#1CBAB0" d="M23.577,67.304c-2.1,0-3.801-1.699-3.801-3.801V23.339c0-2.099,1.701-3.8,3.801-3.8    c2.098,0,3.799,1.701,3.799,3.8v40.164C27.376,65.604,25.675,67.304,23.577,67.304z"></path>
    </g>

    <g class="logo-icon-3">
      <path fill="#004260" d="M43.117,67.304c-2.099,0-3.8-1.699-3.8-3.801V3.8c0-2.099,1.701-3.8,3.8-3.8    c2.098,0,3.799,1.701,3.799,3.8v59.704C46.916,65.604,45.215,67.304,43.117,67.304z"></path>
    </g>
  </g>
  <g class="logo-sq">
    <path fill="#004260" d="M82.224,38.259c1.458,0.73,3.726,1.435,6.8,2.11c3.074,0.782,5.575,1.551,7.504,2.308   c1.928,0.754,3.582,1.939,4.964,3.555c1.379,1.615,2.07,3.779,2.07,6.486c0,3.336-1.315,6.098-3.947,8.286   c-2.631,2.188-6.344,3.282-11.138,3.282c-5.211,0-9.953-1.174-14.225-3.518c-0.888-0.625-1.329-1.484-1.329-2.58   c0-0.832,0.286-1.563,0.86-2.188c0.571-0.624,1.301-0.937,2.188-0.937c0.469,0,0.938,0.104,1.406,0.313   c1.667,0.73,3.334,1.305,5.002,1.721c1.667,0.418,3.543,0.625,5.628,0.625c5.784,0,8.676-1.85,8.676-5.55   c0-1.198-0.664-2.11-1.994-2.735c-1.328-0.625-3.505-1.328-6.525-2.11c-3.075-0.728-5.616-1.484-7.621-2.267   c-2.006-0.781-3.726-1.967-5.158-3.557c-1.435-1.59-2.15-3.687-2.15-6.292c0-3.646,1.316-6.616,3.947-8.911   c2.631-2.292,6.396-3.438,11.293-3.438c4.012,0,7.79,0.652,11.333,1.954c0.729,0.209,1.29,0.6,1.681,1.173   c0.392,0.573,0.587,1.172,0.587,1.798c0,0.834-0.301,1.563-0.899,2.188s-1.342,0.938-2.228,0.938c-0.261,0-0.6-0.051-1.017-0.156   c-3.021-0.938-5.993-1.407-8.91-1.407c-2.813,0-5.016,0.508-6.604,1.524c-1.59,1.017-2.384,2.333-2.384,3.947   C80.035,36.384,80.764,37.531,82.224,38.259z"></path>
    <path fill="#004260" d="M120.17,61.823c-2.893-1.641-5.237-4.035-7.035-7.188s-2.697-6.84-2.697-11.061   c0-4.221,0.899-7.906,2.697-11.06c1.798-3.152,4.143-5.549,7.035-7.191c2.892-1.641,5.952-2.461,9.184-2.461   c5.106,0,9.562,1.98,13.365,5.94V26.77c0-0.989,0.352-1.823,1.056-2.501c0.703-0.676,1.551-1.016,2.54-1.016   s1.823,0.34,2.501,1.016c0.678,0.679,1.018,1.513,1.018,2.501v51.506c0,0.99-0.34,1.838-1.018,2.541s-1.512,1.056-2.501,1.056   s-1.837-0.34-2.54-1.017c-0.704-0.678-1.056-1.537-1.056-2.58v-19.93c-3.804,3.959-8.259,5.939-13.365,5.939   C126.122,64.287,123.062,63.466,120.17,61.823z M121.069,33.179c-2.345,2.449-3.518,5.914-3.518,10.396   c0,4.482,1.173,7.945,3.518,10.395c2.346,2.45,5.444,3.676,9.302,3.676c2.396,0,4.649-0.535,6.761-1.604   c2.11-1.068,3.973-2.488,5.588-4.262V35.368c-1.615-1.771-3.478-3.191-5.588-4.26c-2.11-1.067-4.365-1.603-6.761-1.603   C126.513,29.505,123.414,30.731,121.069,33.179z"></path>
  </g>
  <g class="logo-digital">
    <path fill="#004260" d="M195.008,61.63v-5.55c-1.719,2.294-3.856,4.104-6.408,5.433c-2.554,1.329-5.314,1.993-8.285,1.993   c-5.159,0-9.535-1.862-13.131-5.589c-3.596-3.725-5.394-8.232-5.394-13.521c0-5.288,1.798-9.809,5.394-13.561   s7.972-5.627,13.131-5.627c2.971,0,5.731,0.678,8.285,2.032c2.552,1.356,4.689,3.178,6.408,5.471V10.669   c0-0.52,0.196-0.963,0.586-1.329c0.392-0.364,0.847-0.547,1.368-0.547c0.521,0,0.964,0.183,1.329,0.547   c0.363,0.365,0.548,0.809,0.548,1.329V61.63c0,0.521-0.185,0.965-0.548,1.328c-0.365,0.365-0.81,0.547-1.329,0.547   c-0.521,0-0.978-0.182-1.368-0.547C195.204,62.595,195.008,62.151,195.008,61.63z M165.62,44.396c0,4.246,1.445,7.855,4.338,10.824   c2.893,2.971,6.331,4.457,10.316,4.457s7.398-1.422,10.239-4.262c2.839-2.84,4.337-6.292,4.493-10.355v-1.25   c-0.156-4.116-1.654-7.607-4.493-10.475c-2.841-2.864-6.254-4.299-10.239-4.299s-7.425,1.499-10.316,4.494   C167.066,36.528,165.62,40.149,165.62,44.396z"></path>
    <path fill="#004260" d="M212.906,16.375v-1.797c0-0.521,0.183-0.964,0.549-1.329c0.362-0.364,0.807-0.547,1.328-0.547   c0.52,0,0.978,0.184,1.366,0.547c0.392,0.365,0.587,0.809,0.587,1.329v1.797c0,0.574-0.195,1.055-0.587,1.446   c-0.39,0.391-0.848,0.586-1.366,0.586c-0.521,0-0.966-0.195-1.328-0.586C213.088,17.43,212.906,16.949,212.906,16.375z    M212.906,61.63V27.083c0-0.521,0.183-0.963,0.549-1.328c0.362-0.364,0.818-0.547,1.366-0.547c0.547,0,1.002,0.183,1.367,0.547   c0.363,0.365,0.548,0.808,0.548,1.328V61.63c0,0.521-0.195,0.965-0.587,1.328c-0.39,0.365-0.848,0.547-1.366,0.547   c-0.521,0-0.966-0.182-1.328-0.547C213.088,62.595,212.906,62.151,212.906,61.63z"></path>
    <path fill="#004260" d="M263.553,27.083v33.374c0,4.95-1.758,9.185-5.275,12.7c-3.518,3.518-7.775,5.275-12.778,5.275   c-2.555,0-5.211-0.6-7.973-1.797c-1.043-0.73-1.304-1.564-0.781-2.502c0.572-1.197,1.406-1.482,2.501-0.857   c1.979,0.938,4.064,1.406,6.253,1.406c3.96,0,7.335-1.383,10.122-4.145s4.183-6.122,4.183-10.082v-4.689   c-1.617,2.346-3.676,4.182-6.176,5.51c-2.501,1.33-5.211,1.994-8.129,1.994c-5.002,0-9.25-1.861-12.74-5.588   c-3.491-3.726-5.236-8.207-5.236-13.443c0-5.237,1.76-9.718,5.274-13.443c3.519-3.725,7.751-5.588,12.702-5.588   c2.864,0,5.563,0.678,8.09,2.032c2.527,1.356,4.598,3.178,6.215,5.471v-5.628c0-0.521,0.193-0.963,0.585-1.328   c0.392-0.364,0.832-0.547,1.328-0.547s0.925,0.183,1.29,0.547C263.371,26.119,263.553,26.562,263.553,27.083z M231.272,44.239   c0,4.246,1.396,7.869,4.184,10.863c2.786,2.998,6.146,4.494,10.082,4.494c3.933,0,7.296-1.496,10.083-4.494   c2.786-2.994,4.183-6.629,4.183-10.902c0-4.271-1.396-7.881-4.183-10.825c-2.787-2.943-6.15-4.416-10.083-4.416   c-3.936,0-7.296,1.485-10.082,4.455C232.667,36.384,231.272,39.993,231.272,44.239z"></path>
    <path fill="#004260" d="M277.074,16.375v-1.797c0-0.521,0.182-0.964,0.547-1.329c0.362-0.364,0.808-0.547,1.328-0.547   c0.52,0,0.978,0.184,1.368,0.547c0.391,0.365,0.585,0.809,0.585,1.329v1.797c0,0.574-0.194,1.055-0.585,1.446   c-0.392,0.391-0.849,0.586-1.368,0.586c-0.521,0-0.966-0.195-1.328-0.586C277.256,17.43,277.074,16.949,277.074,16.375z    M277.074,61.63V27.083c0-0.521,0.182-0.963,0.547-1.328c0.362-0.364,0.819-0.547,1.366-0.547c0.548,0,1.003,0.183,1.369,0.547   c0.363,0.365,0.546,0.808,0.546,1.328V61.63c0,0.521-0.194,0.965-0.585,1.328c-0.392,0.365-0.849,0.547-1.368,0.547   c-0.521,0-0.966-0.182-1.328-0.547C277.256,62.595,277.074,62.151,277.074,61.63z"></path>
    <path fill="#004260" d="M307.321,25.207c0.468,0,0.898,0.195,1.29,0.586c0.391,0.391,0.585,0.821,0.585,1.29   s-0.194,0.899-0.585,1.29c-0.392,0.391-0.822,0.586-1.29,0.586h-4.925v27.903c0,0.834,0.324,1.512,0.977,2.031   c0.651,0.521,1.238,0.783,1.76,0.783c0.521,0,0.988,0.209,1.405,0.623c0.417,0.42,0.625,0.859,0.625,1.33   c0,0.469-0.208,0.898-0.625,1.29c-0.417,0.39-0.858,0.585-1.327,0.585c-1.929,0-3.53-0.626-4.809-1.875   c-1.275-1.251-1.914-2.84-1.914-4.77V28.958h-4.767c-0.834,0-1.355-0.156-1.563-0.469c-0.209-0.313-0.313-0.729-0.313-1.25   c0-0.521,0.025-0.886,0.078-1.094c0.156-0.625,0.755-0.938,1.799-0.938h4.767V10.982c0-0.469,0.195-0.899,0.586-1.29   c0.393-0.39,0.834-0.586,1.328-0.586s0.95,0.196,1.368,0.586c0.416,0.391,0.626,0.821,0.626,1.29v14.225H307.321z"></path>
    <path fill="#004260" d="M348.198,25.754c0.363-0.364,0.809-0.547,1.328-0.547c0.521,0,0.962,0.183,1.329,0.547   c0.363,0.365,0.548,0.808,0.548,1.328V61.63c0,0.521-0.185,0.965-0.548,1.328c-0.367,0.365-0.81,0.547-1.329,0.547   c-0.521,0-0.965-0.182-1.328-0.547c-0.366-0.363-0.548-0.807-0.548-1.328v-5.707c-1.668,2.344-3.765,4.195-6.291,5.549   c-2.528,1.355-5.226,2.033-8.09,2.033c-5.004,0-9.276-1.875-12.819-5.628c-3.544-3.751-5.313-8.258-5.313-13.522   c0-5.261,1.77-9.769,5.313-13.521s7.815-5.627,12.819-5.627c2.864,0,5.562,0.678,8.09,2.032c2.526,1.356,4.623,3.178,6.291,5.471   v-5.628C347.65,26.562,347.831,26.119,348.198,25.754z M318.887,44.354c0,4.274,1.421,7.908,4.261,10.904s6.227,4.494,10.161,4.494   c3.934,0,7.307-1.498,10.121-4.494c2.813-2.996,4.221-6.63,4.221-10.904c0-4.271-1.406-7.917-4.221-10.94   c-2.814-3.021-6.188-4.533-10.121-4.533c-3.936,0-7.321,1.512-10.161,4.533C320.308,36.437,318.887,40.083,318.887,44.354z"></path>
    <path fill="#004260" d="M365.079,61.63V10.669c0-0.52,0.183-0.963,0.546-1.329c0.364-0.364,0.808-0.547,1.329-0.547   c0.521,0,0.979,0.183,1.369,0.547c0.391,0.365,0.585,0.809,0.585,1.329V61.63c0,0.521-0.194,0.965-0.585,1.328   c-0.392,0.365-0.85,0.547-1.369,0.547c-0.521,0-0.965-0.182-1.329-0.547C365.262,62.595,365.079,62.151,365.079,61.63z"></path>
  </g>
</svg>
