<?xml version="1.0" encoding="utf-8"?>
<!-- Generator: Adobe Illustrator 19.1.0, SVG Export Plug-In . SVG Version: 6.00 Build 0)  -->
<svg version="1.1" id="Layer_1" xmlns="http://www.w3.org/2000/svg" xmlns:xlink="http://www.w3.org/1999/xlink" x="0px" y="0px"
	 viewBox="0 0 140 37" style="enable-background:new 0 0 140 37;" xml:space="preserve">
<style type="text/css">
	.st0{fill:#66CC00;}
	.st1{fill:#4D4D4D;}
</style>
<g>
	<path class="st0" d="M23.8,15.5c0.8-0.8,1.2-1.8,1.2-3c0-1.2-0.4-2.2-1.2-3.1c-0.8-0.9-1.9-1.4-3.4-1.4h-7c-0.5,0-0.9,0.2-1.2,0.5
		c-0.2,0.3-0.3,0.6-0.3,1v7.3h8.5C21.9,16.9,23,16.5,23.8,15.5z"/>
	<path class="st0" d="M21,18.7h-9v8.6c0,0.4,0.1,0.7,0.3,1c0.3,0.3,0.7,0.5,1.2,0.5h7.7c1.6,0,2.8-0.5,3.7-1.6
		c0.8-0.9,1.3-2.1,1.3-3.4c0-1.4-0.4-2.5-1.3-3.5C23.8,19.3,22.6,18.7,21,18.7z"/>
	<path class="st0" d="M31.5,0H5.3C2.4,0,0,2.4,0,5.3v26.3c0,2.9,2.4,5.3,5.3,5.3h31.5v-5.3V5.3C36.8,2.4,34.4,0,31.5,0z M26.5,28.5
		c-1.3,1.4-3.1,2.2-5.3,2.2h-8.1c-1,0-1.9-0.3-2.5-1c-0.5-0.6-0.8-1.3-0.8-2.2v-18c0-0.9,0.3-1.6,0.8-2.2c0.6-0.7,1.4-1,2.5-1h7.6
		c2,0,3.6,0.7,4.8,2c1.1,1.2,1.6,2.6,1.6,4.3c0,1.1-0.3,2.1-0.8,3c-0.5,0.9-1.2,1.6-2.2,2.2c1.3,0.6,2.2,1.4,2.9,2.4
		c0.8,1.1,1.2,2.3,1.2,3.8C28.3,25.6,27.7,27.2,26.5,28.5z"/>
</g>
<path class="st1" d="M47.6,12.4h6c1.1,0,2,0.3,2.7,0.8c0.7,0.5,1,1.3,1,2.3c0,0.6-0.2,1.2-0.5,1.6c-0.3,0.4-0.7,0.8-1.3,1v0
	c0.8,0.2,1.3,0.5,1.7,1.1c0.4,0.6,0.6,1.3,0.6,2.1c0,0.5-0.1,0.9-0.3,1.4c-0.2,0.4-0.4,0.8-0.8,1.1c-0.4,0.3-0.8,0.6-1.4,0.7
	c-0.6,0.2-1.3,0.3-2.1,0.3h-5.7V12.4z M49.8,17.6h3.5c0.5,0,1-0.1,1.3-0.4s0.5-0.7,0.5-1.3c0-0.6-0.2-1.1-0.5-1.3
	c-0.3-0.3-0.8-0.4-1.4-0.4h-3.5V17.6z M49.8,23h3.8c0.7,0,1.2-0.2,1.5-0.5c0.4-0.3,0.5-0.8,0.5-1.5c0-0.6-0.2-1.1-0.5-1.4
	c-0.4-0.3-0.9-0.5-1.5-0.5h-3.8V23z"/>
<path class="st1" d="M59.6,15.8h1.9v1.7h0c0.1-0.2,0.2-0.5,0.3-0.7c0.2-0.2,0.4-0.4,0.6-0.6c0.2-0.2,0.5-0.3,0.8-0.5
	c0.3-0.1,0.6-0.2,0.9-0.2c0.2,0,0.4,0,0.5,0c0.1,0,0.2,0,0.3,0v1.9c-0.1,0-0.3,0-0.4-0.1c-0.1,0-0.3,0-0.4,0c-0.3,0-0.7,0.1-0.9,0.2
	c-0.3,0.1-0.6,0.3-0.8,0.6c-0.2,0.3-0.4,0.6-0.5,1c-0.1,0.4-0.2,0.8-0.2,1.3v4.3h-2V15.8z"/>
<path class="st1" d="M65.7,12.4h2v1.9h-2V12.4z M65.7,15.8h2v9h-2V15.8z"/>
<path class="st1" d="M78.2,24.3c0,1.4-0.4,2.4-1.1,3c-0.8,0.7-1.9,1-3.3,1c-0.5,0-0.9,0-1.4-0.1c-0.5-0.1-0.9-0.2-1.3-0.5
	c-0.4-0.2-0.7-0.5-0.9-0.9c-0.3-0.4-0.4-0.8-0.5-1.3h2c0.1,0.3,0.2,0.5,0.3,0.7c0.1,0.2,0.3,0.3,0.5,0.4c0.2,0.1,0.4,0.2,0.6,0.2
	c0.2,0,0.5,0,0.7,0c0.8,0,1.4-0.2,1.8-0.6c0.4-0.4,0.6-1,0.6-1.7v-1.4h0c-0.3,0.5-0.7,0.9-1.1,1.2c-0.5,0.3-1,0.4-1.6,0.4
	c-0.7,0-1.3-0.1-1.8-0.4c-0.5-0.2-0.9-0.6-1.3-1c-0.3-0.4-0.6-0.9-0.7-1.5c-0.2-0.6-0.2-1.2-0.2-1.8c0-0.6,0.1-1.2,0.3-1.7
	c0.2-0.5,0.5-1,0.8-1.4c0.3-0.4,0.8-0.7,1.3-1c0.5-0.2,1.1-0.4,1.7-0.4c0.6,0,1.1,0.1,1.6,0.4c0.5,0.2,0.8,0.6,1.1,1.1h0v-1.2h2
	V24.3z M73.8,23.2c0.4,0,0.8-0.1,1.1-0.3c0.3-0.2,0.6-0.4,0.7-0.7c0.2-0.3,0.3-0.6,0.4-1c0.1-0.4,0.1-0.8,0.1-1.1s0-0.8-0.1-1.1
	c-0.1-0.4-0.2-0.7-0.4-1c-0.2-0.3-0.4-0.5-0.7-0.7c-0.3-0.2-0.7-0.2-1.1-0.2c-0.4,0-0.8,0.1-1.1,0.3c-0.3,0.2-0.5,0.4-0.7,0.7
	c-0.2,0.3-0.3,0.6-0.4,1c-0.1,0.4-0.1,0.8-0.1,1.1c0,0.4,0,0.7,0.1,1.1c0.1,0.4,0.2,0.7,0.4,0.9c0.2,0.3,0.4,0.5,0.7,0.7
	C73,23.1,73.4,23.2,73.8,23.2z"/>
<path class="st1" d="M80.2,12.4h2V17h0c0.2-0.4,0.6-0.7,1.1-1c0.5-0.3,1-0.4,1.6-0.4c1,0,1.8,0.3,2.3,0.8c0.6,0.5,0.9,1.3,0.9,2.3
	v6.2h-2v-5.7c0-0.7-0.2-1.2-0.5-1.5c-0.3-0.3-0.7-0.5-1.3-0.5c-0.3,0-0.6,0.1-0.9,0.2c-0.3,0.1-0.5,0.3-0.7,0.5
	c-0.2,0.2-0.3,0.5-0.4,0.8c-0.1,0.3-0.2,0.6-0.2,0.9v5.3h-2V12.4z"/>
<path class="st1" d="M89.3,15.8h1.5v-2.7h2v2.7h1.8v1.5h-1.8v4.8c0,0.2,0,0.4,0,0.5s0.1,0.3,0.1,0.4c0.1,0.1,0.2,0.2,0.3,0.2
	c0.1,0.1,0.3,0.1,0.5,0.1c0.1,0,0.3,0,0.4,0c0.1,0,0.3,0,0.4-0.1v1.5c-0.2,0-0.4,0-0.6,0.1c-0.2,0-0.4,0-0.6,0c-0.5,0-0.9,0-1.3-0.1
	c-0.3-0.1-0.6-0.2-0.7-0.4c-0.2-0.2-0.3-0.4-0.4-0.7c-0.1-0.3-0.1-0.6-0.1-1v-5.3h-1.5V15.8z"/>
<path class="st1" d="M95.1,12.4h10.1v1.9h-3.9v10.5H99V14.3h-3.9V12.4z"/>
<path class="st1" d="M108.3,12.4h2.3l4.8,12.4H113l-1.2-3.3h-5l-1.2,3.3h-2.2L108.3,12.4z M107.5,19.9h3.8l-1.9-5.3h-0.1L107.5,19.9
	z"/>
<path class="st1" d="M116.5,12.4h2.2v10.5h6.3v1.9h-8.5V12.4z"/>
<path class="st1" d="M126.5,12.4h2.2V18l5.5-5.7h2.7l-5,5l5.3,7.5h-2.7l-4.1-5.9l-1.8,1.8v4.2h-2.2V12.4z"/>
</svg>
